<svg xmlns="http://www.w3.org/2000/svg" width="226.709" height="150.855" viewBox="0 0 226.709 150.855">
  <g id="undraw_love_xfcv" transform="translate(0 0)">
    <path id="Path_196" data-name="Path 196" d="M329.2,273.75a65.424,65.424,0,0,1-37.3,57.876,64.287,64.287,0,0,1-27.627,6.2q-2.061,0-4.092-.128a708.668,708.668,0,0,0-88.652,0q-2.03.126-4.092.128a64.266,64.266,0,0,1-31.653-8.282,65.488,65.488,0,0,1,31.35-122.5,64.572,64.572,0,0,1,48.721,21.821A64.85,64.85,0,0,1,329.2,273.75Z" transform="translate(-102.502 -186.969)" fill="#f2f2f2"/>
    <path id="Path_197" data-name="Path 197" d="M406.9,710.754a65.963,65.963,0,0,1-28.017,6.2q-2.09,0-4.15-.128a728.788,728.788,0,0,0-89.9,0q-2.059.127-4.15.128a65.892,65.892,0,0,1-32.1-8.282c14.818-6.33,43.762-10.629,77.042-10.629C362.44,698.04,393.95,703.3,406.9,710.754Z" transform="translate(-216.398 -566.097)" fill="#323659"/>
    <path id="Path_198" data-name="Path 198" d="M649.282,351.819a5.236,5.236,0,0,0-5.44-.862c-2.706,1.18-3.885,4.5-3.7,7.442s1.417,5.71,2.212,8.554a20.182,20.182,0,0,1,.094,11.721,12.386,12.386,0,0,1-8.017,8.143c-3.546.987-7.307,0-10.853-.99" transform="translate(-504.854 -297.783)" fill="none" stroke="#3f3d56" stroke-miterlimit="10" stroke-width="1"/>
    <path id="Path_199" data-name="Path 199" d="M742.427,319.2a3.092,3.092,0,0,0-6.173-.356l-.356,6.173,6.173.356a3.092,3.092,0,0,0,.356-6.173Z" transform="translate(-591.579 -271.05)" fill="#f28c4a"/>
    <path id="Path_200" data-name="Path 200" d="M713.295,389.741a3.092,3.092,0,0,0-6.173-.356l-.356,6.173,6.173.356a3.092,3.092,0,0,0,.356-6.173Z" transform="translate(-569.085 -325.519)" fill="#f28c4a"/>
    <path id="Path_201" data-name="Path 201" d="M679.177,321.505a3.092,3.092,0,0,0-3.971,4.74l4.74,3.971,3.971-4.74a3.092,3.092,0,0,0-4.74-3.971Z" transform="translate(-543.861 -274.501)" fill="#f28c4a"/>
    <path id="Path_202" data-name="Path 202" d="M743.776,335.9a5.236,5.236,0,0,0-5.014-2.28c-2.923.417-4.942,3.3-5.545,6.189s-.155,5.881-.146,8.834a20.184,20.184,0,0,1-3.032,11.323,12.386,12.386,0,0,1-9.9,5.713c-3.681.007-7.043-1.949-10.2-3.845" transform="translate(-571.54 -284.676)" fill="none" stroke="#3f3d56" stroke-miterlimit="10" stroke-width="1"/>
    <path id="Path_203" data-name="Path 203" d="M865.886,312.518a3.092,3.092,0,1,0-5.855-1.988l-1.988,5.855,5.855,1.987a3.092,3.092,0,0,0,1.988-5.855Z" transform="translate(-685.894 -265.261)" fill="#f28c4a"/>
    <path id="Path_204" data-name="Path 204" d="M819.016,372.752a3.092,3.092,0,0,0-5.855-1.988l-1.987,5.855,5.855,1.988a3.092,3.092,0,0,0,1.988-5.855Z" transform="translate(-649.703 -311.771)" fill="#f28c4a"/>
    <path id="Path_205" data-name="Path 205" d="M808.993,298.834a3.092,3.092,0,0,0-5.09,3.511l3.511,5.09,5.09-3.511a3.092,3.092,0,1,0-3.511-5.09Z" transform="translate(-643.667 -256.818)" fill="#f28c4a"/>
    <path id="Path_206" data-name="Path 206" d="M770.439,162.648a5.236,5.236,0,0,1,5.078,2.132c1.679,2.428.935,5.868-.777,8.273s-4.211,4.108-6.385,6.107a20.183,20.183,0,0,0-6.252,9.915,12.386,12.386,0,0,0,2.528,11.144c2.495,2.707,6.214,3.846,9.748,4.874" transform="translate(-611.527 -152.645)" fill="none" stroke="#3f3d56" stroke-miterlimit="10" stroke-width="1"/>
    <path id="Path_207" data-name="Path 207" d="M774.125,120.578a3.092,3.092,0,1,1,5.435,2.948l-2.948,5.435-5.435-2.948a3.092,3.092,0,0,1,2.948-5.435Z" transform="translate(-617.57 -118.96)" fill="#f28c4a"/>
    <path id="Path_208" data-name="Path 208" d="M761.745,195.889a3.092,3.092,0,0,1,5.435,2.948l-2.948,5.435-5.435-2.948a3.092,3.092,0,1,1,2.948-5.435Z" transform="translate(-608.011 -177.111)" fill="#f28c4a"/>
    <path id="Path_209" data-name="Path 209" d="M829.349,148.7a3.092,3.092,0,1,1,.88,6.12l-6.12.88-.88-6.12a3.092,3.092,0,1,1,6.12-.88Z" transform="translate(-658.987 -139.876)" fill="#f28c4a"/>
    <rect id="Rectangle_34" data-name="Rectangle 34" width="5.696" height="2.962" transform="translate(100.367 75.436)" fill="#fbbebe"/>
    <rect id="Rectangle_35" data-name="Rectangle 35" width="5.696" height="2.962" transform="translate(100.367 75.436)" opacity="0.1"/>
    <circle id="Ellipse_46" data-name="Ellipse 46" cx="7.291" cy="7.291" r="7.291" transform="translate(82.595 18.246)" fill="#2d2e30"/>
    <path id="Path_210" data-name="Path 210" d="M560.01,441.838s-2.279-.684-2.734-.456,1.595,2.051,1.595,2.051Z" transform="translate(-453.605 -367.883)" fill="#fbbebe"/>
    <path id="Path_211" data-name="Path 211" d="M560.01,441.838s-2.279-.684-2.734-.456,1.595,2.051,1.595,2.051Z" transform="translate(-453.605 -367.883)" opacity="0.1"/>
    <path id="Path_212" data-name="Path 212" d="M483.729,699.54s5.241.684,6.152.684,3.418.911,2.051,2.051-10.025,2.734-11.165,2.051-2.734-2.734-1.595-2.962A36.832,36.832,0,0,0,483.729,699.54Z" transform="translate(-393.045 -567.255)" fill="#2d2e30"/>
    <path id="Path_213" data-name="Path 213" d="M350.821,613.719,349,616.909l2.278,1.139,4.329.911L357.884,616l-.911-3.418Z" transform="translate(-269.479 -473.004)" fill="#fbbebe"/>
    <path id="Path_214" data-name="Path 214" d="M490.108,633.54s-2.962,12.532-2.506,13.215,1.367,2.506.456,3.19-4.557.911-4.557.911l1.139-6.608,1.595-7.975Z" transform="translate(-396.69 -516.293)" fill="#728ae2"/>
    <path id="Path_215" data-name="Path 215" d="M459.513,508.29l2.962,13.443s.456,6.608-.684,9.114-7.291,28.937-7.291,28.937,6.38.228,7.747-.456,3.673-16.466,3.673-16.466,7.492-14.978,7.264-17.94,1.132-18.009-.8-19.144S459.513,508.29,459.513,508.29Z" transform="translate(-374.297 -417.474)" fill="#728ae2"/>
    <path id="Path_216" data-name="Path 216" d="M451.241,739.548l2.734-2.734s7.291,3.646,8.43,3.873,3.646,2.051,1.139,2.734-11.848.228-14.127,0-6.835-.456-6.152-1.823a49.851,49.851,0,0,0,1.823-6.152s.63-.871,1,.248.6,2.714,1.508,2.714A17.42,17.42,0,0,1,451.241,739.548Z" transform="translate(-365.57 -594.731)" fill="#2d2e30"/>
    <path id="Path_217" data-name="Path 217" d="M629.144,499l6.38-.456,4.329,2.279-.456,2.734-1.823.456s-5.013-2.051-7.975-1.367S629.144,499,629.144,499Z" transform="translate(-508.384 -412.053)" fill="#a0616a"/>
    <path id="Path_218" data-name="Path 218" d="M652.7,489.1s2.506,2.741,0,3.763c0,0,.456.794,2.279,1.022s4.329,1.823,5.013,1.823,3.646-.456,1.823-2.962-9.114-7.975-9.114-7.975-2.051-.911-2.734.911a8.862,8.862,0,0,1-1.044,2.239S652.24,488.641,652.7,489.1Z" transform="translate(-524.417 -401.243)" fill="#2d2e30"/>
    <path id="Path_219" data-name="Path 219" d="M581.5,596.954s2.051,7.747,2.051,8.2,2.734-1.823,2.734-1.823l.456-4.1s-1.823-1.823-1.823-2.962S581.5,596.954,581.5,596.954Z" transform="translate(-472.361 -487.227)" fill="#a0616a"/>
    <path id="Path_220" data-name="Path 220" d="M590.234,609.1s-1.595,2.051-2.734,1.367l.683,7.747s.456,3.873,2.051,2.279,3.19-9.57,3.19-9.57,2.279-4.785.456-5.468a18.971,18.971,0,0,0-3.19-.911S590.69,609.325,590.234,609.1Z" transform="translate(-476.993 -493.901)" fill="#2d2e30"/>
    <path id="Path_221" data-name="Path 221" d="M534.5,509l6.836,14.127s2.278,7.975,3.19,8.2,4.329-1.367,4.785-1.595-3.873-9.114-3.873-10.709S540.2,508.54,540.2,508.54Z" transform="translate(-436.069 -419.775)" fill="#ff6584"/>
    <path id="Path_222" data-name="Path 222" d="M534.5,509l6.836,14.127s2.278,7.975,3.19,8.2,4.329-1.367,4.785-1.595-3.873-9.114-3.873-10.709S540.2,508.54,540.2,508.54Z" transform="translate(-436.069 -419.775)" fill="#f55677" opacity="0.1"/>
    <path id="Path_223" data-name="Path 223" d="M510.715,388.641a30.612,30.612,0,0,1-.684,7.975c-.911,3.19,1.139,13.671,1.139,13.671a26.777,26.777,0,0,0,4.329,0c.911-.228,13.215-.456,13.9,0s.456,8.43,0,8.2-12.3-2.734-18-1.823-6.38-.456-6.608-.911-4.1-12.76-4.1-12.76l-1.367-5.924-1.823-6.38,1.139-6.152Z" transform="translate(-407.5 -324.028)" fill="#f55677"/>
    <circle id="Ellipse_47" data-name="Ellipse 47" cx="6.152" cy="6.152" r="6.152" transform="translate(83.279 22.575)" fill="#a0616a"/>
    <circle id="Ellipse_48" data-name="Ellipse 48" cx="6.152" cy="6.152" r="6.152" transform="translate(71.772 37.044)" fill="#fbbebe"/>
    <path id="Path_224" data-name="Path 224" d="M502.5,251.377s4.1,2.734,3.418,4.329a14,14,0,0,1-2.506,3.418l-.228,2.506,3.418,1.139,8.658.456s-.456-7.747-3.19-9.8-5.924-3.418-6.38-5.241S502.5,251.377,502.5,251.377Z" transform="translate(-411.361 -218.435)" fill="#a0616a"/>
    <path id="Path_225" data-name="Path 225" d="M529.481,281.759a3.564,3.564,0,0,0-6.556.591,2.748,2.748,0,0,0,.264,2.22c1.595,2.734,2.734,4.785,2.734,4.785l5.013-.456A17.011,17.011,0,0,0,529.481,281.759Z" transform="translate(-427.037 -243.197)" fill="#a0616a"/>
    <path id="Path_226" data-name="Path 226" d="M490.95,293.954s-5.989,3.779-5.534,6.285a67.082,67.082,0,0,1,.911,8.43c0,1.595,1.6,6.608,3.873,7.519s2.279-1.595,5.468,1.367,6.608,4.329,6.38,4.785.911-4.1-.911-5.924-3.873-7.063-2.051-9.342,3.418-8.2,3.418-8.2a1.357,1.357,0,0,0-1.595-1.139c-1.367.228-9.8-.684-10.253-1.823A1.924,1.924,0,0,1,490.95,293.954Z" transform="translate(-398.15 -254.082)" fill="#728ae2"/>
    <path id="Path_227" data-name="Path 227" d="M506.055,280.1s6.253-6.811,7.165-6.583,3.536,2.924,3.536,2.924l-3.536-2.469-7.165,6.512Z" transform="translate(-414.106 -238.3)" fill="#2f2e41"/>
    <path id="Path_228" data-name="Path 228" d="M444.335,313.54s.856,9.216,2.023,10.076-8.858.633-8.858.633,2.279-7.063.911-7.975S444.335,313.54,444.335,313.54Z" transform="translate(-361.171 -269.205)" fill="#fbbebe"/>
    <path id="Path_229" data-name="Path 229" d="M438.892,342.284s-7.747-2.051-8.658-.911-2.734,10.937-2.734,10.937a76.853,76.853,0,0,0,2.506,11.392c1.595,4.785,3.646,21.646,5.24,21.646s4.329-2.506,5.013-2.506,4.785-2.051,7.291-1.595a8.872,8.872,0,0,0,4.329-.228s-1.139-9.57-3.873-12.076-4.1-19.823-4.1-19.823S440.032,341.828,438.892,342.284Z" transform="translate(-353.449 -290.43)" fill="#323659"/>
    <path id="Path_230" data-name="Path 230" d="M529.5,429.958s2.591,3.516,5.169,3.695l1.439-.049s-2.279,5.924-1.139,6.152,4.557-4.329,3.418-6.835a36.208,36.208,0,0,0-4.557-6.38Z" transform="translate(-432.209 -356.458)" fill="#fbbebe"/>
    <path id="Path_231" data-name="Path 231" d="M560.473,441.54s-3.873,3.646-2.278,5.241,3.646,0,3.646,0S563.435,444.5,560.473,441.54Z" transform="translate(-454.068 -368.041)" fill="#fbbebe"/>
    <path id="Path_232" data-name="Path 232" d="M560.473,441.54s-3.873,3.646-2.278,5.241,3.646,0,3.646,0S563.435,444.5,560.473,441.54Z" transform="translate(-454.068 -368.041)" opacity="0.1"/>
    <circle id="Ellipse_49" data-name="Ellipse 49" cx="7.291" cy="7.291" r="7.291" transform="translate(84.19 16.879)" fill="#2d2e30"/>
    <circle id="Ellipse_50" data-name="Ellipse 50" cx="4.329" cy="4.329" r="4.329" transform="translate(90.57 13.689)" fill="#2d2e30"/>
    <path id="Path_233" data-name="Path 233" d="M500.9,177.369a4.329,4.329,0,0,1,3.873-4.3,4.329,4.329,0,1,0,0,8.61,4.329,4.329,0,0,1-3.873-4.3Z" transform="translate(-409.421 -160.718)" fill="#2d2e30"/>
    <ellipse id="Ellipse_51" data-name="Ellipse 51" cx="5.81" cy="4.329" rx="5.81" ry="4.329" transform="translate(83.279 22.803)" fill="#2d2e30"/>
    <path id="Path_234" data-name="Path 234" d="M414.923,273.342a2.4,2.4,0,0,0-.109,1.3,6.857,6.857,0,0,0,.582.894,1.17,1.17,0,0,1-.484,1.662,1.628,1.628,0,0,0-1.119-.189.729.729,0,0,0-.565.79c.08.526.693.863,1.005,1.333a3.448,3.448,0,0,1,.381,1.13,10.1,10.1,0,0,1,.455,1.839,1.2,1.2,0,0,1-.878,1.352,1.761,1.761,0,0,1-1.435-.7c-.371-.422-.621-.922-.961-1.367-1.1-1.444-2.991-2.116-4.269-3.426a6.343,6.343,0,0,1-1.4-6.147,3.962,3.962,0,0,1,1.345-2.136,17.523,17.523,0,0,1,2.508-1.118,16.461,16.461,0,0,0,2.3-1.731,3.739,3.739,0,0,1,2.771-.887,22.181,22.181,0,0,1,2.152.7,3.482,3.482,0,0,0,2.373-.2l-.675.724a3.437,3.437,0,0,0,1.529.232,1.854,1.854,0,0,1-1.026.927,1.842,1.842,0,0,0,1.28.386,3.81,3.81,0,0,1-1.811,1.367c-.378.1-.79.093-1.18.157a5.991,5.991,0,0,0-2.211,1.006c-.357.226-.805.483-.8.953C414.688,272.586,415,272.9,414.923,273.342Z" transform="translate(-336.742 -232.43)" fill="#2d2e30"/>
    <path id="Path_235" data-name="Path 235" d="M455.552,355.417s-2.051,7.519,1.595,9.114,11.165,7.519,12.532,9.57a7.651,7.651,0,0,0,2.962,2.734s5.468-4.557,4.329-5.924-5.7-5.468-5.7-5.468S459.654,352.911,455.552,355.417Z" transform="translate(-374.666 -301.285)" fill="#323659"/>
    <path id="Path_236" data-name="Path 236" d="M472.559,347.693s-8.371-2.393-10.907-2.791-9.144.285-7.777,1.424,9.342,2.051,9.342,2.051l9.57,3.646Z" transform="translate(-373.673 -293.333)" fill="#a0616a"/>
    <path id="Path_237" data-name="Path 237" d="M532.124,314.224s.684,4.557.684,6.152,1.139,2.962.228,2.962-1.595-.911-1.595,0-1.367,6.38,0,6.38,4.785-.911,5.468-.911a2.652,2.652,0,0,0,2.734-2.962c-.228-2.506-1.139-5.241-.684-5.7s.684-2.734.228-3.19a21.261,21.261,0,0,1-1.595-3.418Z" transform="translate(-433.238 -269.205)" fill="#728ae2"/>
    <g id="Group_25" data-name="Group 25" transform="translate(145.259 89.99)" opacity="0.3">
      <path id="Path_238" data-name="Path 238" d="M741.813,515.322a1.6,1.6,0,0,0-.381,3.171l3.171.381.381-3.171a1.6,1.6,0,1,0-3.171-.381Z" transform="translate(-740.025 -513.915)" fill="#ff9563"/>
    </g>
    <g id="Group_26" data-name="Group 26" transform="translate(182.883 75.346)" opacity="0.3">
      <path id="Path_239" data-name="Path 239" d="M907.529,450.457a1.6,1.6,0,1,0-1.568,2.782l2.782,1.568,1.568-2.782a1.6,1.6,0,0,0-2.782-1.568Z" transform="translate(-905.148 -449.644)" fill="#ff9563"/>
    </g>
    <g id="Group_27" data-name="Group 27" transform="translate(166.449 96.37)" opacity="0.3">
      <path id="Path_240" data-name="Path 240" d="M834.813,543.322a1.6,1.6,0,1,0-.381,3.171l3.171.381.381-3.171a1.6,1.6,0,0,0-3.171-.381Z" transform="translate(-833.025 -541.915)" fill="#ff9563"/>
    </g>
  </g>
</svg>
