<?xml version="1.0" encoding="utf-8"?>
<!-- Generator: Adobe Illustrator 24.0.1, SVG Export Plug-In . SVG Version: 6.00 Build 0)  -->
<svg version="1.1" id="Laag_1" xmlns="http://www.w3.org/2000/svg" xmlns:xlink="http://www.w3.org/1999/xlink" x="0px" y="0px"
	 viewBox="0 0 22 16" style="enable-background:new 0 0 22 16;" xml:space="preserve">
<path d="M15.7,9.1C17,10.1,18,11.3,18,13v3h4v-3C22,10.8,18.4,9.5,15.7,9.1z"/>
<path d="M14,8c2.2,0,4-1.8,4-4s-1.8-4-4-4c-0.5,0-0.9,0.1-1.3,0.2C13.5,1.3,14,2.6,14,4s-0.5,2.7-1.3,3.8C13.1,7.9,13.5,8,14,8z"/>
<path d="M8,8c2.2,0,4-1.8,4-4s-1.8-4-4-4S4,1.8,4,4S5.8,8,8,8z M8,2c1.1,0,2,0.9,2,2S9.1,6,8,6S6,5.1,6,4S6.9,2,8,2z"/>
<path d="M8,9c-2.7,0-8,1.3-8,4v3h16v-3C16,10.3,10.7,9,8,9z M14,14H2v-1c0.2-0.7,3.3-2,6-2s5.8,1.3,6,2V14z"/>
</svg>
