<?xml version="1.0" encoding="UTF-8" standalone="no"?><!DOCTYPE svg PUBLIC "-//W3C//DTD SVG 1.1//EN" "http://www.w3.org/Graphics/SVG/1.1/DTD/svg11.dtd"><svg width="100%" height="100%" viewBox="0 0 87 71" version="1.1" xmlns="http://www.w3.org/2000/svg" xmlns:xlink="http://www.w3.org/1999/xlink" xml:space="preserve" xmlns:serif="http://www.serif.com/" style="fill-rule:evenodd;clip-rule:evenodd;stroke-linejoin:round;stroke-miterlimit:2;"><path d="M86.438,36.877l0,-15.44c-0.961,-0.389 -2.009,-0.604 -3.105,-0.604c-6.041,0 -9.416,6 -8.041,10.459l-14.792,14.833c-1.25,-0.375 -3.083,-0.375 -4.333,0l-10.625,-10.625c1.416,-4.458 -1.959,-10.5 -8.042,-10.5c-6.042,-0 -9.458,6 -8.042,10.5l-19,18.958c-4.458,-1.375 -10.458,2 -10.458,8.042c0,4.583 3.75,8.333 8.333,8.333c6.042,0 9.417,-6 8.042,-10.458l18.958,-19c1.25,0.375 3.084,0.375 4.334,0l10.625,10.625c-1.417,4.458 1.958,10.5 8.041,10.5c6.042,-0 9.459,-6 8.042,-10.5l14.833,-14.792c1.66,0.512 3.533,0.366 5.23,-0.331Z" style="fill:#fff;fill-opacity:0.05;fill-rule:nonzero;"/><path d="M58.333,25l3.917,-8.625l8.583,-3.875l-8.583,-3.875l-3.917,-8.625l-3.833,8.625l-8.667,3.875l8.667,3.875l3.833,8.625Z" style="fill:#fff;fill-opacity:0.05;fill-rule:nonzero;"/><path d="M10.417,33.333l2.083,-8.333l8.333,-2.083l-8.333,-2.084l-2.083,-8.333l-2.084,8.333l-8.333,2.084l8.333,2.083l2.084,8.333Z" style="fill:#fff;fill-opacity:0.05;fill-rule:nonzero;"/></svg>