<svg width="100%" height="100%" viewBox="0 0 67 88" version="1.1" xmlns="http://www.w3.org/2000/svg">
    <path d="M58.333,29.167l-4.166,-0l-0,-8.334c-0,-11.5 -9.334,-20.833 -20.834,-20.833c-11.5,0 -20.833,9.333 -20.833,20.833l0,8.334l-4.167,-0c-4.583,-0 -8.333,3.75 -8.333,8.333l0,41.667c0,4.583 3.75,8.333 8.333,8.333l50,0c4.584,0 8.334,-3.75 8.334,-8.333l-0,-41.667c-0,-4.583 -3.75,-8.333 -8.334,-8.333Zm-37.5,-8.334c0,-6.916 5.584,-12.5 12.5,-12.5c6.917,0 12.5,5.584 12.5,12.5l0,8.334l-25,-0l0,-8.334Zm37.5,58.334l-50,-0l0,-41.667l50,0l0,41.667Zm-25,-12.5c4.584,-0 8.334,-3.75 8.334,-8.334c-0,-4.583 -3.75,-8.333 -8.334,-8.333c-4.583,0 -8.333,3.75 -8.333,8.333c0,4.584 3.75,8.334 8.333,8.334Z"/>
</svg>