<?xml version="1.0" encoding="utf-8"?>
<!-- Generator: Adobe Illustrator 24.0.1, SVG Export Plug-In . SVG Version: 6.00 Build 0)  -->
<svg version="1.1" id="Laag_1" xmlns="http://www.w3.org/2000/svg" xmlns:xlink="http://www.w3.org/1999/xlink" x="0px" y="0px"
	 viewBox="0 0 19.5 20" style="enable-background:new 0 0 19.5 20;" xml:space="preserve">
<path d="M17.2,11c0-0.3,0.1-0.6,0.1-1c0-0.3,0-0.7-0.1-1l2.1-1.6c0.2-0.1,0.2-0.4,0.1-0.6l-2-3.5C17.3,3.1,17.1,3,16.9,3
	c-0.1,0-0.1,0-0.2,0l-2.5,1c-0.5-0.4-1.1-0.7-1.7-1l-0.4-2.7C12.2,0.2,12,0,11.7,0h-4C7.5,0,7.3,0.2,7.2,0.4L6.9,3.1
	c-0.6,0.2-1.2,0.6-1.7,1l-2.5-1C2.6,3,2.6,3,2.5,3C2.3,3,2.2,3.1,2.1,3.3l-2,3.5C-0.1,6.9,0,7.2,0.2,7.4L2.3,9c0,0.3-0.1,0.6-0.1,1
	c0,0.3,0,0.7,0.1,1l-2.1,1.6C0,12.8-0.1,13,0.1,13.3l2,3.5C2.2,16.9,2.3,17,2.5,17c0.1,0,0.1,0,0.2,0l2.5-1c0.5,0.4,1.1,0.7,1.7,1
	l0.4,2.6c0,0.2,0.2,0.4,0.5,0.4h4c0.2,0,0.5-0.2,0.5-0.4l0.4-2.6c0.6-0.2,1.2-0.6,1.7-1l2.5,1c0.1,0,0.1,0,0.2,0
	c0.2,0,0.3-0.1,0.4-0.2l2-3.5c0.1-0.2,0.1-0.5-0.1-0.6L17.2,11z M15.2,9.3c0,0.3,0,0.5,0,0.7c0,0.2,0,0.4,0,0.7L15,11.9l0.9,0.7
	l1.1,0.8l-0.7,1.2L15,14.1l-1-0.4l-0.9,0.7c-0.4,0.3-0.8,0.6-1.2,0.7l-1.1,0.4l-0.2,1.1L10.4,18H9l-0.2-1.4l-0.2-1.1l-1.1-0.4
	c-0.4-0.2-0.8-0.4-1.2-0.7l-0.9-0.7l-1.1,0.4l-1.3,0.5l-0.7-1.2l1.1-0.8l0.9-0.7l-0.1-1.1c0-0.3-0.1-0.5-0.1-0.7s0-0.4,0.1-0.7
	l0.1-1.1L3.5,7.4L2.4,6.6l0.7-1.2l1.3,0.5l1,0.4l0.9-0.7c0.4-0.3,0.8-0.6,1.2-0.7l1.1-0.4l0.2-1.1L9,2h1.4l0.2,1.3l0.2,1.1l1.1,0.4
	c0.4,0.2,0.8,0.4,1.2,0.7L14,6.3L15,5.9l1.3-0.5L17,6.6l-1.1,0.9L15,8.1C15,8.1,15.2,9.3,15.2,9.3z M9.7,6c-2.2,0-4,1.8-4,4
	s1.8,4,4,4s4-1.8,4-4S11.9,6,9.7,6z M9.7,12c-1.1,0-2-0.9-2-2s0.9-2,2-2s2,0.9,2,2S10.8,12,9.7,12z"/>
</svg>
