<svg xmlns="http://www.w3.org/2000/svg" xmlns:xlink="http://www.w3.org/1999/xlink" viewBox="0 0 431 379.27"><defs><style>.a{opacity:0.2;fill:url(#a);}.b,.m{fill:#eb5677;}.c{fill:#7286c2;}.d{fill:#323559;}.e,.h{fill:#aa498e;}.f{fill:#8a3175;}.g{fill:#fffffe;}.h,.k,.m{stroke:#2d2e30;}.ab,.h,.k,.m,.n,.o,.p,.q,.r,.s,.t,.u,.v,.w,.x{stroke-miterlimit:10;}.h{stroke-width:4px;}.i{fill:#5ea45c;}.j,.l{fill:#2d2e30;}.ab,.k,.o,.p,.s,.u,.v{fill:none;}.k,.m,.n,.o,.q,.r{stroke-width:2px;}.k,.l,.m{opacity:0.5;}.n,.o,.p,.q,.r,.s,.t,.u,.v,.w,.x{stroke:#e68251;}.n{fill:url(#b);}.p{stroke-width:6px;}.q{fill:url(#c);}.r{fill:url(#d);}.s{stroke-width:5px;}.t{fill:url(#e);}.v{stroke-width:3px;}.w{fill:url(#f);}.x{fill:url(#g);}.y{fill:url(#h);}.z{fill:#e68251;}.aa{fill:#f5a778;}.ab{stroke:#7286c2;}.ac{fill:url(#i);}</style><linearGradient id="a" y1="189.63" x2="431" y2="189.63" gradientUnits="userSpaceOnUse"><stop offset="0" stop-color="#f5a778"/><stop offset="0.96" stop-color="#f5a778"/><stop offset="1" stop-color="#f5a778"/></linearGradient><linearGradient id="b" x1="215.55" y1="124.54" x2="283.02" y2="124.54" xlink:href="#a"/><linearGradient id="c" x1="219.62" y1="203.07" x2="287.1" y2="203.07" xlink:href="#a"/><linearGradient id="d" x1="169.5" y1="159.61" x2="218.76" y2="159.61" gradientTransform="matrix(0.9, 0.43, -0.43, 0.9, 87.22, -67.84)" xlink:href="#a"/><linearGradient id="e" x1="243.21" y1="56.87" x2="269.23" y2="56.87" xlink:href="#a"/><linearGradient id="f" x1="188" y1="96.9" x2="214.03" y2="96.9" xlink:href="#a"/><linearGradient id="g" x1="282.11" y1="148.54" x2="303.49" y2="148.54" xlink:href="#a"/><linearGradient id="h" x1="319.64" y1="206.43" x2="341.42" y2="206.43" xlink:href="#a"/><linearGradient id="i" x1="318.37" y1="192.66" x2="336.06" y2="192.66" xlink:href="#a"/></defs><title>brutoloonillustration</title><path class="a" d="M128.14,377.33S5.46,383,.33,286.91,51.13,162.1,97.8,139.84s161-182.25,250.51-129.08,82.56,147.51,82.56,147.51l.13,221-302.86-1.94"/><path class="b" d="M223.84,349.91s18.28,12.85,36.86,3.38,27.34-14.14,36.72-12.74c0,0-8.11-21.92-4.5-33.58s10.6-10.27,10.6-10.27,1.85,32.66,0,40.59l4.67,1.4s9.87-28,13.8-21.93-7.81,21.93-7.81,21.93,5.88,4.19,12.07,8.39,33.41,21.41,39.86,20.73S389.83,356,401,362.48a57.81,57.81,0,0,1,17.73,16.79l-232.88-2.6,38-26.76"/><path class="c" d="M250.28,279s7-5.84,15.73-3.82,11.42,2.92,15.14,8.65,7.88,6.06,10.8,4.71S305.88,282,305.88,282s5.73-1.48,5.16-7.23-6.73-16.64-6.73-16.64l-6.63.56s-14.45,3.82-17,10.11-4.68-2-18.72,2.69-12.84,7.19-12.84,7.19Z"/><path class="d" d="M305.88,282s5.73-1.48,5.16-7.23-6.73-16.64-6.73-16.64l-6.63.56s-2,.53-4.65,1.52c-2.23.83,7.17,3.15,9.57,9.15A47,47,0,0,1,305.88,282Z"/><path class="c" d="M207.27,293.06s-5.87-21.54,0-40,15.67-40.84,35.25-60.14l-8.39-22.1-26.86,44.48-9.79-29.38-8.95,1.4s5.31,16.23,5.87,20.7,3.08,20.42-2,31.89-15.38,29.94-15.66,46.16Z"/><path class="d" d="M207.27,293.06s-5.87-21.54,0-40,15.67-40.84,35.25-60.14l-2.18-5.73s-23.28,16.92-36.71,47.41-6.95,56-6.95,56Z"/><path class="d" d="M207.27,215.29l-9.79-29.38-5,.79s5.21,18.91,5.45,21.21C202.19,208.56,207.27,215.29,207.27,215.29Z"/><path class="e" d="M101.65,284.34H277.06s-2.27,33.46-18,51.51c-15.85,18.23-16.77,17.92-36.45,29.85H251.7s4.22,1.32,4.22,11.63H119.35S118.82,367,125.16,367h32.38s-27.63-9.51-37.93-29.32S101.12,308.38,101.65,284.34Z"/><path class="f" d="M101.65,284.34H216.3s-25.36.53-47.82,15.85c-9.84,6.71-10.31,25.23-4,40.68,3,7.43,26.68,24.83,26.68,24.83s-3.43,1.06-3.7,5.55,2.38,6.08,2.38,6.08H119.35S118.82,367,125.16,367h32.38s-26.36-8.26-39-26.68C105.61,321.46,101.12,308.38,101.65,284.34Z"/><path class="g" d="M246.15,284.34s4.49,47.81-30.91,69c0,0,47-12.42,52.31-69Z"/><line class="h" x1="97.8" y1="284.6" x2="279.81" y2="284.6"/><path class="b" d="M265.52,143.13s21.39-25.33,47.21-22.38,33.44,7.63,33.44,7.63L319.12,90.26s-10.08-10.08-26.8-5.9-46.23,24.83-46.23,24.83Z"/><path class="i" d="M265.52,143.13A58.86,58.86,0,0,1,291,124.34c1.43-.53-2.09-11.07.08-23,1.17-6.45,8.86-18,8.86-18a40.7,40.7,0,0,0-7.63,1c-11.39,2.92-46.23,24.83-46.23,24.83h0Z"/><path class="j" d="M232.65,186.54s17.82-28,43.8-28.48,34.17,3.09,34.17,3.09L278.72,127s-11.34-8.65-27.35-2.27-42.5,30.78-42.5,30.78Z"/><path class="j" d="M265.52,143.13A58.86,58.86,0,0,1,291,124.34c1.43-.53-2.09-11.07.08-23,1.17-6.45,8.86-18,8.86-18a40.7,40.7,0,0,0-7.63,1c-11.39,2.92-46.23,24.83-46.23,24.83h0Z"/><path class="b" d="M200,112.61s-5.65-32.67-29.42-43.18S137.84,59.1,137.84,59.1l42.61-19.21s13.8-3.6,26.11,8.46,27.33,44.8,27.33,44.8Z"/><path class="j" d="M200,112.61a58.9,58.9,0,0,0-12.49-29.1c-1-1.18,7.39-8.5,11.56-19.9,2.25-6.15,1.45-20,1.45-20a40.83,40.83,0,0,1,6.07,4.73c8.35,8.28,27.33,44.8,27.33,44.8h0Z"/><rect class="b" x="233.01" y="149.83" width="127.56" height="52.31"/><rect class="k" x="241.4" y="154.3" width="112.74" height="41.68" rx="5.8"/><circle class="l" cx="297.28" cy="175.07" r="12.94"/><rect class="b" x="100.82" y="150.93" width="127.56" height="52.31" transform="translate(-44.84 56.31) rotate(-17.12)"/><rect class="m" x="108.92" y="155.15" width="112.74" height="41.68" rx="5.8" transform="translate(-44.49 56.47) rotate(-17.12)"/><circle class="l" cx="164.81" cy="176.07" r="12.94"/><path class="b" d="M204.19,168.85S174.82,138.08,153,129.12a60.59,60.59,0,0,0-41.4-1.39L141,95s21-5.59,37.49-1.11,54.83,39.72,54.83,39.72Z"/><path class="m" d="M199.27,159.15S174.45,132.93,156,125.3a50.85,50.85,0,0,0-35-1.19l24.82-27.89s17.72-4.76,31.66-1,46.32,33.85,46.32,33.85Z"/><circle class="l" cx="176.66" cy="115.11" r="11.36"/><path class="b" d="M217.7,126.28s3.92-42.36-3.65-64.7a60.64,60.64,0,0,0-26.13-32.14l44,.66s18,12.15,25.46,27.54,6,67.44,6,67.44Z"/><path class="m" d="M221.78,116.19s3.48-35.93-2.87-54.84a50.79,50.79,0,0,0-22.07-27.16l37.33.4s15.23,10.24,21.51,23.26S260.57,115,260.57,115Z"/><circle class="l" cx="240.15" cy="70.22" r="11.36"/><path class="b" d="M253.78,139.39s20.1-37.49,38.75-51.94a60.6,60.6,0,0,1,39.53-12.39L295,51.35s-21.72.2-36.43,8.92-42.25,52.91-42.25,52.91Z"/><path class="m" d="M255.94,128.73s16.93-31.89,32.66-44.15A50.79,50.79,0,0,1,322,74.1L290.64,53.84s-18.36.13-30.78,7.52-35.61,45-35.61,45Z"/><circle class="l" cx="265.99" cy="80.25" r="11.36"/><circle class="n" cx="249.28" cy="124.54" r="33.73"/><circle class="o" cx="249.28" cy="124.54" r="28.79"/><path class="p" d="M258.78,121.17s1.56-5.83-2.33-8.56-10.36-1.38-10.36-1.38-2.79,1-3.27,3.66,4.14,10,4.14,10,7.09,5.5,6.93,7.57.64,7.88-6.85,7.4-9.31-2.47-10.75-10.75"/><line class="p" x1="256.12" y1="105.42" x2="239.72" y2="145.94"/><circle class="q" cx="253.36" cy="203.07" r="33.73"/><circle class="o" cx="253.36" cy="203.07" r="28.79"/><path class="p" d="M259.67,195.21s-1.75-5.78-6.49-6.05-9.54,4.27-9.54,4.27a5.4,5.4,0,0,0-.85,4.83c1,2.49,8.76,6.29,8.76,6.29s8.91.95,9.87,2.79,4.68,6.37-1.93,9.9-9.23,2.8-14.8-3.49"/><line class="p" x1="249.12" y1="183.21" x2="256.48" y2="226.31"/><ellipse class="r" cx="194.13" cy="159.61" rx="24.58" ry="24.82" transform="translate(-49.7 98.69) rotate(-25.4)"/><ellipse class="o" cx="194.13" cy="159.61" rx="20.98" ry="21.19" transform="translate(-49.7 98.69) rotate(-25.4)"/><path class="s" d="M199.32,154.41s-.82-4.37-4.24-5-7.25,2.31-7.25,2.31a3.94,3.94,0,0,0-1,3.46c.51,1.89,5.86,5.32,5.86,5.32s6.4,1.44,7,2.86,2.91,5-2.17,7.07-6.91,1.27-10.47-3.79"/><line class="s" x1="192.6" y1="144.77" x2="194.59" y2="176.83"/><circle class="t" cx="256.22" cy="56.87" r="13.01"/><circle class="u" cx="256.22" cy="56.87" r="11.11"/><path class="v" d="M259.88,55.57s.6-2.25-.9-3.3-4-.54-4-.54a2.07,2.07,0,0,0-1.25,1.41c-.19,1,1.59,3.84,1.59,3.84s2.74,2.12,2.67,2.92.25,3-2.64,2.86-3.59-1-4.14-4.15"/><line class="o" x1="258.85" y1="49.49" x2="252.53" y2="65.12"/><circle class="w" cx="201.01" cy="96.9" r="13.01"/><circle class="u" cx="201.01" cy="96.9" r="11.11"/><path class="v" d="M201.55,93.05s-1.72-1.57-3.34-.73-2.32,3.3-2.32,3.3a2.09,2.09,0,0,0,.67,1.77c.82.63,4.14.36,4.14.36s3.15-1.45,3.83-1,2.81,1.19,1.31,3.66-2.5,2.75-5.59,1.77"/><line class="o" x1="195.69" y1="91.15" x2="206.63" y2="103.98"/><circle class="x" cx="292.8" cy="148.54" r="10.69"/><circle class="u" cx="292.8" cy="148.54" r="9.12"/><path class="v" d="M293.24,145.37s-1.41-1.29-2.74-.59a4.93,4.93,0,0,0-1.91,2.71,1.73,1.73,0,0,0,.55,1.45c.67.52,3.41.29,3.41.29s2.58-1.19,3.14-.84,2.31,1,1.08,3-2.06,2.26-4.6,1.45"/><line class="o" x1="288.43" y1="143.82" x2="297.42" y2="154.36"/><polyline class="j" points="325.99 366.3 321.88 372.49 314.18 373.08 314.18 376.67 330.3 376.67 330.3 366.97 325.99 366.3"/><path class="j" d="M362.27,367.81l-2.77,4.84-8,1.11v2.91h17.1s.09-6.78-2.16-10.37l-4.18,1.51"/><path class="d" d="M331.16,259.65s-2.89,32.66-1.93,47.07,1.17,45.92-3.35,59.94l4.65.58s18.1-26.51,14.07-45.53c0,0-2.89-3.27-.2-8.26L357.47,255Z"/><path class="j" d="M331.16,259.65s-1.23,13.85-1.82,27.49c2.4,7.79,9.88,17.85,15.06,26.31L357.47,255Z"/><path class="d" d="M334.41,259.27s12.11,52.83,13.45,56.1l1.35,3.26s.62,5.19,2.9,8.46,10,37.65,10.16,40.72h3.84s7.5-30.93-3.45-44.37c0,0,8.06-51.72.19-65.92Z"/><path class="e" d="M329.34,262.34s-3-19.42-5.3-26.62a94.26,94.26,0,0,0-7.16-15.52s-.5-7.81,9-10.3,22-6,24.29-3.47,5,15.57,4,21.91a39.08,39.08,0,0,0,.2,12.1A55,55,0,0,1,365,257.52S345.59,266.7,329.34,262.34Z"/><path class="f" d="M329.34,262.34s-3-19.42-5.3-26.62a94.26,94.26,0,0,0-7.16-15.52s-.5-7.81,9-10.3,22-6,24.29-3.47,5,15.57,4,21.91S357.47,247.74,329.34,262.34Z"/><path class="y" d="M326.25,200.35,328,210.76l-6.2,1.46s-4.82,6.54,0,7.66,20.3-.09,19.62-12.48l-3.62-.86-4.21-13.88Z"/><path class="z" d="M326.25,200.35,328,210.76a17.74,17.74,0,0,1,4.37-8.49c3.71-4.07,3.71-1.39,3.71-1.39l-2.49-8.22Z"/><path class="aa" d="M316.88,220.2S324,232.36,324,235.72a94.65,94.65,0,0,1-7.68,9.28,48.57,48.57,0,0,1-6.62,6.19s-13.43.61-14.54.61-7.66,2.06-7.66,2.06-3,4.13-5.59,3.62,1.8-7,3.7-7.92,7.05-.6,7.05-.6l15.4-6.88A78.21,78.21,0,0,0,316.88,220.2Z"/><path class="ab" d="M279.81,270.37s-3.58-15.31,6.08-17.9,17.63,7.19,17.63,7.19"/><path class="aa" d="M342.44,220.2s-3.37,10-5.69,16.63-3.87,7.31-3.87,7.31-14.28,11.7-23,10.84-10,1.12-9.9,2.41-2.75,3.61,5.94,2.92,7.14-2.32,7.14-2.32,6.45,1.46,16.69-3.78,12.13-6.8,12.13-6.8,9.44-14.66,10.07-27.62C352.11,217,343,216.94,342.44,220.2Z"/><path class="ac" d="M319,183.06l17,9.59S330.82,203,326,202.23,316.66,196.54,319,183.06Z"/><path class="z" d="M319,183.06l17,9.59S316.66,196.54,319,183.06Z"/><path class="j" d="M334.41,195.45s-.21-5.18-3.42-5.18,0,2.39,0,2.39.63,1.14-2.72.51-8.59-9.14-8.59-9.14c-2.26,3.07-1.45,10.22-1.45,10.22-4.16-16.55,3.44-16.83,5.25-19.09,0,0,13.25-6.4,18,13.48s17.36,4.61,18.13,21.31-6.7,24-6.7,24-2.75-24.61-9.67-16.23S332,211,334.41,195.45Z"/></svg>