<?xml version="1.0" encoding="UTF-8" standalone="no"?>
<!DOCTYPE svg PUBLIC "-//W3C//DTD SVG 1.1//EN" "http://www.w3.org/Graphics/SVG/1.1/DTD/svg11.dtd">
<svg width="100%" height="100%" viewBox="0 0 220 202" version="1.1" xmlns="http://www.w3.org/2000/svg" xmlns:xlink="http://www.w3.org/1999/xlink" xml:space="preserve" xmlns:serif="http://www.serif.com/" style="fill-rule:evenodd;clip-rule:evenodd;stroke-linejoin:round;stroke-miterlimit:2;">
    <g id="Artboard1">
        <g>
            <path d="M61.583,78.461C61.232,76.627 61.213,74.703 61.583,72.771L73.22,12.905C74.838,4.709 82.889,-0.722 91.094,0.848L195.859,21.212C204.055,22.83 209.487,30.882 207.916,39.088L196.28,98.953C194.662,107.15 186.61,112.581 178.404,111.011L160.906,107.609L165.3,123.995L205.427,131.795L221.428,49.481L236.393,52.389L220.392,134.704C218.774,142.9 210.723,148.331 202.517,146.761L169.693,140.38L175.15,160.734C177.351,168.943 172.407,177.508 164.198,179.709L43.966,211.945C35.757,214.146 27.192,209.203 24.991,200.994C24.986,200.976 24.981,200.959 24.977,200.941L0.897,110.827C0.886,110.789 0.876,110.751 0.866,110.712C-1.326,102.538 3.597,94.008 11.771,91.817L61.583,78.461ZM160.12,164.707L39.992,196.916L27.914,151.868L148.042,119.66L160.12,164.707ZM139.991,89.63L19.863,121.838L15.837,106.822L135.965,74.613L139.991,89.63ZM76.801,74.381L113.592,64.517C111.96,60.536 111.425,56.065 112.3,51.566C114.694,39.251 126.798,31.086 139.113,33.48C139.123,33.482 139.134,33.484 139.144,33.486C151.443,35.877 159.596,47.965 157.205,60.263C157.203,60.274 157.201,60.284 157.199,60.294C156.337,64.731 154.214,68.629 151.275,71.688L156.513,91.223L181.314,96.044L192.95,36.178L88.185,15.814L76.801,74.381Z" style="fill:white;fill-opacity:0.1;"/>
        </g>
    </g>
</svg>
